<svg width="600" height="484" viewBox="0 0 600 484" fill="none" xmlns="http://www.w3.org/2000/svg">
<path d="M171.293 247.816C238.06 265.949 287.47 363.962 364.674 335.759C432.14 311.099 385.605 221.385 465.656 218.595C514.2 216.879 611.149 228.777 575.219 135.632C553.395 79.0719 493.842 29.7235 435.921 11.4933C346.214 -16.7656 369.544 95.0286 307.158 115.546C279.112 124.766 261.977 106.396 238.66 94.6241C204.363 77.3145 158.888 58.2474 119.874 57.536C57.7953 56.4062 2.66511 122.241 5.45581 184.143C10.3814 292.171 109.758 231.12 171.293 247.816Z" fill="#407BFF"/>
<path opacity="0.9" d="M171.293 247.816C238.06 265.949 287.47 363.962 364.674 335.759C432.14 311.099 385.605 221.385 465.656 218.595C514.2 216.879 611.149 228.777 575.219 135.632C553.395 79.0719 493.842 29.7235 435.921 11.4933C346.214 -16.7656 369.544 95.0286 307.158 115.546C279.112 124.766 261.977 106.396 238.66 94.6241C204.363 77.3145 158.888 58.2474 119.874 57.536C57.7953 56.4062 2.66511 122.241 5.45581 184.143C10.3814 292.171 109.758 231.12 171.293 247.816Z" fill="white"/>
<path d="M300 470.833C449.417 470.833 570.544 463.764 570.544 455.044C570.544 446.323 449.417 439.254 300 439.254C150.583 439.254 29.4558 446.323 29.4558 455.044C29.4558 463.764 150.583 470.833 300 470.833Z" fill="#F5F5F5"/>
<path d="M464.512 63.2826C456.14 67.8576 453.349 81.4152 457.27 87.3153C442.758 91.6671 450.293 116.606 474.014 118.001C497.735 119.396 515.791 110.734 504.14 92.239C515.665 76.7147 510.363 59.3772 500.26 61.2881C489.419 39.5708 453.112 40.2124 464.512 63.2826Z" fill="#263238"/>
<path d="M489.767 119.675C486.108 119.663 482.521 118.661 479.386 116.774C479.336 116.756 479.29 116.727 479.253 116.689C479.215 116.651 479.186 116.605 479.168 116.555C479.15 116.505 479.144 116.452 479.149 116.399C479.154 116.346 479.17 116.294 479.197 116.248C479.225 116.202 479.262 116.163 479.306 116.133C479.35 116.103 479.4 116.083 479.452 116.075C479.505 116.066 479.559 116.07 479.61 116.084C479.661 116.099 479.709 116.125 479.749 116.16C483.792 118.579 488.568 119.467 493.211 118.663C497.853 117.86 502.053 115.417 505.047 111.78C508.856 107.066 510.628 99.506 503.972 92.4482C503.94 92.4143 503.915 92.3744 503.898 92.3309C503.882 92.2873 503.874 92.2409 503.875 92.1943C503.876 92.1476 503.887 92.1017 503.906 92.0591C503.925 92.0165 503.952 91.9781 503.986 91.9461C504.02 91.914 504.06 91.8889 504.103 91.8723C504.147 91.8557 504.193 91.8478 504.24 91.8491C504.287 91.8504 504.333 91.8608 504.375 91.8799C504.418 91.8989 504.456 91.9261 504.488 91.96C511.381 99.3525 509.581 107.303 505.591 112.227C503.658 114.548 501.239 116.418 498.506 117.705C495.772 118.992 492.789 119.664 489.767 119.675V119.675Z" fill="#263238"/>
<path d="M454.647 91.9461C454.575 91.9441 454.506 91.9203 454.449 91.8779C454.391 91.8355 454.348 91.7765 454.326 91.7089C450.614 81.0805 455.581 66.8115 464.358 62.9061C464.444 62.8756 464.538 62.8772 464.622 62.9105C464.707 62.9439 464.777 63.0067 464.819 63.0874C464.837 63.1295 464.847 63.1748 464.848 63.2208C464.849 63.2668 464.841 63.3125 464.824 63.3553C464.807 63.398 464.782 63.437 464.75 63.4701C464.718 63.5031 464.679 63.5295 464.637 63.5477C456.153 67.3137 451.367 81.1502 454.981 91.4439C454.997 91.4879 455.003 91.5344 455 91.5808C454.997 91.6272 454.985 91.6725 454.964 91.7141C454.943 91.7557 454.914 91.7927 454.879 91.823C454.843 91.8532 454.802 91.8761 454.758 91.8903L454.647 91.9461Z" fill="#263238"/>
<path d="M452.372 76.5892H452.246C452.162 76.5548 452.093 76.4898 452.054 76.407C452.016 76.3243 452.009 76.2299 452.037 76.1428C454.549 69.4896 459.293 64.4264 464.4 62.92C464.489 62.8941 464.584 62.9046 464.665 62.949C464.747 62.9935 464.807 63.0683 464.833 63.1571C464.858 63.2459 464.848 63.3414 464.804 63.4224C464.759 63.5035 464.684 63.5636 464.595 63.5895C459.698 64.9843 455.135 69.9359 452.693 76.3939C452.664 76.4537 452.618 76.5038 452.561 76.5384C452.504 76.573 452.439 76.5906 452.372 76.5892Z" fill="#263238"/>
<path d="M471.907 447.609L463.842 447.623L462.488 417.342L476.065 417.677L471.907 447.609Z" fill="#FFB573"/>
<path d="M457.884 186.305C457.884 186.305 457.172 270.343 455.4 306.929C455.33 308.015 455.33 309.106 455.4 310.192C458.051 346.862 462.447 417.342 462.447 417.342L476.107 417.691C476.107 417.691 488.009 361.41 480.642 310.43C492.488 252.768 498.865 201.313 488.135 186.291L457.884 186.305Z" fill="#407BFF"/>
<path opacity="0.2" d="M480.767 219.683C476.581 233.715 480.656 278.823 482.819 299.634C485.763 284.598 488.274 270.133 490.13 256.799L480.767 219.683Z" fill="black"/>
<path d="M462.935 443.704H473.414C473.634 443.696 473.85 443.772 474.016 443.917C474.182 444.062 474.286 444.265 474.307 444.485L475.367 453.063C475.373 453.328 475.326 453.592 475.228 453.839C475.13 454.086 474.984 454.311 474.798 454.501C474.612 454.69 474.39 454.841 474.145 454.944C473.901 455.047 473.638 455.1 473.372 455.099C468.753 455.099 466.549 454.765 460.73 454.779C457.144 454.779 454.981 455.141 450.028 455.141C445.074 455.141 445.074 450.399 447.153 449.967C456.488 448.028 457.688 446.954 460.94 444.387C461.51 443.944 462.212 443.704 462.935 443.704Z" fill="#263238"/>
<path d="M466.381 124.459C465.865 127.346 465.279 130.038 464.651 132.828C464.023 135.618 463.381 138.407 462.642 141.197C461.177 146.776 459.656 152.244 457.647 157.767C456.638 160.623 455.464 163.417 454.13 166.136C453.391 167.645 452.537 169.095 451.577 170.474C451.298 170.851 451.046 171.213 450.684 171.632C450.336 172.076 449.949 172.487 449.526 172.859C448.456 173.87 447.166 174.619 445.758 175.049C444.282 175.495 442.716 175.557 441.209 175.23C440.023 174.956 438.891 174.484 437.86 173.836C436.297 172.835 434.91 171.581 433.758 170.125C431.779 167.664 430.202 164.905 429.084 161.952C428.838 161.324 428.817 160.631 429.024 159.989C429.23 159.347 429.652 158.796 430.217 158.429C430.783 158.062 431.458 157.901 432.128 157.974C432.799 158.046 433.424 158.348 433.898 158.827L434.065 159.009C435.797 160.837 437.663 162.534 439.646 164.086C440.422 164.678 441.283 165.148 442.2 165.481C442.535 165.564 442.772 165.564 442.8 165.481C442.828 165.397 442.605 165.341 442.409 165.355C442.214 165.369 442.088 165.439 442.144 165.355C442.21 165.233 442.284 165.117 442.367 165.006C442.506 164.837 442.627 164.655 442.73 164.462C443.315 163.502 443.828 162.499 444.265 161.464C445.281 159.074 446.175 156.635 446.944 154.155C448.535 149.05 449.986 143.735 451.242 138.393C452.498 133.051 453.74 127.597 454.856 122.269C455.2 120.796 456.101 119.514 457.372 118.692C458.642 117.87 460.181 117.572 461.666 117.861C463.152 118.15 464.467 119.003 465.336 120.241C466.205 121.48 466.56 123.007 466.326 124.501L466.381 124.459Z" fill="#FFB573"/>
<path d="M453.698 174.896C453.698 178.327 507.195 178.996 507.195 174.463L479.86 167.489L453.698 174.896" fill="#263238"/>
<path d="M463.521 115.463C477.626 113.104 492.037 113.246 506.093 115.881C506.918 116.012 507.707 116.309 508.411 116.756C509.116 117.203 509.722 117.79 510.191 118.48C510.661 119.17 510.984 119.949 511.14 120.769C511.297 121.588 511.284 122.431 511.102 123.246C503.54 157.098 503.972 168.479 504.698 186.305H457.898C455.554 156.568 454.312 139.593 454.005 129.955C453.753 122.604 456.279 116.537 463.521 115.463Z" fill="#FFB573"/>
<path opacity="0.2" d="M505.953 125.296C505.659 130.021 506.284 134.758 507.795 139.244C508.395 136.022 509.093 132.563 509.888 128.783L505.953 125.296Z" fill="black"/>
<path d="M490.73 90.7465C489.335 97.5114 488.065 109.939 492.809 114.458C492.809 114.458 490.953 121.335 478.367 121.335C464.512 121.335 471.74 114.458 471.74 114.458C479.302 112.645 479.107 107.038 477.795 101.779L490.73 90.7465Z" fill="#FFB573"/>
<path opacity="0.2" d="M485.456 95.2518L477.795 101.821C478.121 103.046 478.34 104.297 478.451 105.559C481.34 105.141 485.302 101.975 485.609 98.948C485.781 97.7168 485.729 96.4645 485.456 95.2518V95.2518Z" fill="black"/>
<path d="M498.042 79.0022C495.447 90.0352 494.595 94.7636 487.981 99.5199C478.047 106.689 465.042 101.11 464.26 89.5191C463.563 79.0998 467.902 62.7945 479.609 60.228C482.181 59.6485 484.858 59.7351 487.386 60.4798C489.914 61.2244 492.211 62.6023 494.057 64.4828C495.903 66.3634 497.238 68.6842 497.936 71.2252C498.633 73.7662 498.67 76.4431 498.042 79.0022V79.0022Z" fill="#FFB573"/>
<path d="M493.828 62.4039C482.135 63.7011 485.693 85.4881 494.484 87.5942C504.781 82.559 511.13 63.4361 493.828 62.4039Z" fill="#263238"/>
<path d="M551.065 427.664L542.986 430.118L531.195 405.43L543.628 402.041L551.065 427.664Z" fill="#FFB573"/>
<path d="M540.656 427.65L551.037 423.632C551.219 423.562 551.42 423.559 551.603 423.623C551.787 423.687 551.943 423.814 552.042 423.981L556.688 431.82C556.8 432.015 556.868 432.233 556.888 432.457C556.907 432.681 556.879 432.906 556.803 433.118C556.728 433.33 556.607 433.523 556.45 433.684C556.293 433.846 556.103 433.971 555.893 434.052C552.251 435.447 550.493 436.158 545.93 437.929C543.14 439.017 538.758 442.644 534.879 444.136C531 445.629 529.298 442.086 530.693 440.858C534.473 437.56 537.451 433.443 539.4 428.821C539.518 428.55 539.691 428.307 539.907 428.105C540.123 427.904 540.378 427.749 540.656 427.65V427.65Z" fill="#263238"/>
<path d="M470.735 186.305C470.735 186.305 487.94 274.276 494.456 309.049C501.195 345.314 531.223 405.374 531.223 405.374L543.684 401.971C543.684 401.971 526.619 337.726 518.665 305.882C517.102 248.221 518.944 201.271 504.712 186.249L470.735 186.305Z" fill="#407BFF"/>
<path d="M479.735 78.9325C479.581 79.8391 478.981 80.4946 478.34 80.3273C477.698 80.1599 477.391 79.4067 477.544 78.5001C477.698 77.5934 478.312 76.9379 478.94 77.0355C479.567 77.1331 479.902 78.0258 479.735 78.9325Z" fill="#263238"/>
<path d="M469.479 77.1889C469.326 78.0956 468.712 78.7511 468.084 78.5837C467.456 78.4164 467.135 77.6771 467.288 76.7565C467.442 75.836 468.056 75.1944 468.684 75.3617C469.312 75.5291 469.633 76.2823 469.479 77.1889Z" fill="#263238"/>
<path d="M468.935 75.4594L466.856 74.4551C466.856 74.4551 467.693 76.3521 468.935 75.4594Z" fill="#263238"/>
<path d="M472.353 79.3648C471.201 81.2939 469.793 83.0581 468.167 84.6093C468.574 85.0161 469.064 85.3302 469.604 85.53C470.143 85.7298 470.719 85.8107 471.293 85.767L472.353 79.3648Z" fill="#ED893E"/>
<path d="M475.619 90.1607C475.151 90.161 474.684 90.119 474.223 90.0352C474.188 90.0301 474.155 90.018 474.124 89.9998C474.094 89.9815 474.068 89.9574 474.047 89.9288C474.026 89.9002 474.011 89.8677 474.003 89.8333C473.995 89.7988 473.994 89.7632 474 89.7283C474.014 89.6593 474.053 89.5979 474.11 89.5565C474.167 89.5151 474.237 89.4968 474.307 89.5051C475.433 89.7196 476.594 89.6674 477.697 89.3525C478.799 89.0376 479.813 88.4688 480.656 87.6919C480.681 87.6648 480.711 87.6432 480.744 87.6284C480.778 87.6137 480.814 87.606 480.851 87.606C480.888 87.606 480.924 87.6137 480.958 87.6284C480.991 87.6432 481.022 87.6648 481.046 87.6919C481.094 87.7433 481.12 87.8105 481.12 87.8802C481.12 87.9499 481.094 88.017 481.046 88.0685C479.585 89.4561 477.633 90.2084 475.619 90.1607V90.1607Z" fill="#263238"/>
<path d="M499.633 88.5148C498.521 90.4033 496.712 91.7805 494.595 92.3506C491.805 93.0619 490.409 90.5373 491.274 87.915C492.014 85.5578 494.386 82.3358 497.191 82.7682C497.8 82.8795 498.372 83.1402 498.855 83.5269C499.338 83.9136 499.718 84.4143 499.96 84.984C500.202 85.5536 500.299 86.1744 500.242 86.7907C500.185 87.407 499.975 87.9994 499.633 88.5148Z" fill="#FFB573"/>
<path d="M484.186 77.5376C484.073 77.5365 483.963 77.4994 483.873 77.4317C483.783 77.3639 483.716 77.2691 483.684 77.1611C482.944 74.7759 479.888 73.7438 479.86 73.7438C479.792 73.7233 479.728 73.689 479.673 73.6431C479.618 73.5972 479.572 73.5406 479.54 73.4767C479.507 73.4128 479.488 73.3429 479.483 73.2714C479.478 73.1998 479.488 73.128 479.512 73.0603C479.532 72.9916 479.566 72.9277 479.612 72.8725C479.658 72.8174 479.715 72.7722 479.779 72.7396C479.843 72.707 479.913 72.6877 479.984 72.6829C480.056 72.6781 480.128 72.6879 480.195 72.7116C480.335 72.7116 483.809 73.9251 484.716 76.896C484.738 76.9647 484.745 77.037 484.739 77.1086C484.732 77.1803 484.711 77.2499 484.678 77.3135C484.644 77.3771 484.598 77.4333 484.542 77.479C484.487 77.5246 484.422 77.5588 484.353 77.5795L484.186 77.5376Z" fill="#263238"/>
<path d="M467.191 71.9165C467.098 71.9154 467.007 71.8904 466.926 71.844C466.845 71.7976 466.778 71.7313 466.73 71.6515C466.66 71.5257 466.643 71.3772 466.682 71.2386C466.721 71.1001 466.814 70.9827 466.94 70.9123C467.674 70.468 468.505 70.2058 469.362 70.1475C470.219 70.0893 471.077 70.2367 471.865 70.5775C471.992 70.6431 472.088 70.7559 472.132 70.8916C472.177 71.0273 472.166 71.175 472.102 71.3028C472.037 71.4296 471.924 71.5255 471.788 71.5699C471.652 71.6142 471.505 71.6035 471.377 71.5399V71.5399C470.747 71.2822 470.065 71.1758 469.387 71.2291C468.708 71.2823 468.052 71.4939 467.47 71.8468C467.386 71.8975 467.289 71.9218 467.191 71.9165V71.9165Z" fill="#263238"/>
<path d="M509.916 117.82C513.893 123.022 517.507 128.281 520.94 133.832C522.642 136.622 524.316 139.412 525.851 142.382C527.519 145.461 528.897 148.688 529.967 152.021C530.121 152.467 530.233 152.983 530.358 153.415L530.456 153.82L530.581 154.406C530.638 154.771 530.675 155.139 530.693 155.508C530.757 156.718 530.668 157.932 530.428 159.12C530.031 161.004 529.437 162.842 528.656 164.602C527.279 167.712 525.656 170.706 523.8 173.557C520.267 179.034 516.296 184.217 511.926 189.053C511.447 189.589 510.786 189.928 510.071 190.005C509.357 190.081 508.639 189.89 508.057 189.468C507.475 189.046 507.071 188.424 506.922 187.721C506.773 187.018 506.89 186.285 507.251 185.664V185.594C510.335 180.224 513.391 174.7 516.028 169.233C517.321 166.597 518.444 163.88 519.391 161.101C519.798 159.921 520.079 158.7 520.228 157.46C520.279 157.095 520.279 156.724 520.228 156.359V156.275V156.107C520.13 155.828 520.06 155.577 519.935 155.285C518.848 152.669 517.571 150.138 516.112 147.711C514.577 145.13 512.944 142.55 511.27 139.969C507.865 134.864 504.293 129.732 500.665 124.766C499.796 123.52 499.446 121.985 499.69 120.486C499.933 118.986 500.751 117.641 501.97 116.734C503.19 115.827 504.714 115.431 506.221 115.628C507.727 115.826 509.098 116.602 510.042 117.792L509.916 117.82Z" fill="#FFB573"/>
<path d="M479.205 77.2029L477.126 76.1986C477.126 76.1986 477.949 78.1095 479.205 77.2029Z" fill="#263238"/>
<path d="M455.316 126.621C456.178 123.102 457.288 119.648 458.637 116.286C460.778 115.646 462.966 115.18 465.181 114.891C469.694 118.889 473.407 123.707 476.121 129.09C482.107 123.036 493.563 116.913 500.54 114.682C502.9 114.533 505.267 114.831 507.516 115.56C502.758 130.568 497.902 145.66 506.512 149.538C506.358 156.665 506.763 165.508 507.126 174.449C498.991 173.557 466.73 172.008 453.628 174.882C452.958 165.815 452.721 158.144 452.763 151.519C446.665 143.749 452.777 133.177 455.316 126.621Z" fill="#263238"/>
<g opacity="0.2">
<path d="M468.14 154.531C468.067 154.54 467.997 154.568 467.938 154.612C467.88 154.656 467.834 154.715 467.805 154.782C466.815 157.557 466.845 160.592 467.888 163.347C466.926 162.538 465.977 161.742 465.098 160.933C465.883 159.254 466.187 157.389 465.976 155.547C465.764 153.705 465.044 151.958 463.898 150.5C463.854 150.443 463.796 150.398 463.731 150.369C463.665 150.34 463.593 150.327 463.521 150.333C463.447 150.339 463.376 150.365 463.317 150.41C463.258 150.454 463.212 150.515 463.186 150.584C462.165 153.436 462.229 156.564 463.367 159.371C462.112 158.228 460.912 157.084 459.809 155.982C460.633 154.294 460.964 152.408 460.764 150.54C460.564 148.672 459.842 146.899 458.679 145.423C458.635 145.366 458.578 145.321 458.512 145.292C458.446 145.262 458.374 145.25 458.302 145.256C458.228 145.262 458.158 145.288 458.098 145.333C458.039 145.377 457.994 145.438 457.967 145.507C456.953 148.365 457.017 151.494 458.149 154.308C456.237 152.314 454.647 150.5 453.46 148.994C453.034 147.307 452.188 145.756 450.999 144.485C449.811 143.215 448.32 142.266 446.665 141.727C446.598 141.715 446.529 141.72 446.463 141.74C446.398 141.76 446.338 141.795 446.289 141.843C446.24 141.89 446.203 141.949 446.181 142.014C446.159 142.078 446.153 142.147 446.163 142.215C447.419 148.394 451.967 149.468 452.888 149.622C453.544 150.444 454.284 151.351 455.177 152.327C452.99 151.348 450.557 151.056 448.2 151.491C448.129 151.507 448.063 151.543 448.011 151.595C447.96 151.647 447.923 151.712 447.907 151.784C447.886 151.853 447.883 151.926 447.897 151.996C447.912 152.067 447.944 152.133 447.991 152.188C449.19 153.555 450.748 154.561 452.489 155.091C454.229 155.62 456.083 155.654 457.842 155.187C458.623 155.996 459.46 156.819 460.34 157.67C457.385 156.825 454.23 157.012 451.395 158.2C451.328 158.235 451.272 158.288 451.233 158.354C451.194 158.419 451.173 158.493 451.173 158.569C451.173 158.645 451.194 158.72 451.233 158.785C451.272 158.85 451.328 158.903 451.395 158.939C452.988 159.93 454.814 160.487 456.689 160.553C458.565 160.619 460.425 160.193 462.084 159.315C463.256 160.417 464.498 161.519 465.781 162.621C462.922 161.331 459.687 161.143 456.698 162.091C456.628 162.119 456.567 162.165 456.521 162.224C456.474 162.282 456.444 162.352 456.433 162.426C456.425 162.499 456.435 162.572 456.462 162.64C456.489 162.708 456.531 162.768 456.586 162.816C458.055 164.006 459.824 164.766 461.698 165.012C463.573 165.258 465.478 164.981 467.205 164.211L467.316 164.142C467.36 164.095 467.389 164.037 467.4 163.974L468.977 165.257C469.026 165.323 469.094 165.372 469.172 165.397C470.009 166.066 470.86 166.722 471.726 167.364C471.801 167.428 471.898 167.464 471.998 167.464C472.097 167.464 472.194 167.428 472.27 167.364V167.364C472.302 167.319 472.325 167.268 472.338 167.214C472.35 167.16 472.352 167.105 472.343 167.05C472.334 166.996 472.314 166.944 472.285 166.897C472.255 166.85 472.217 166.81 472.172 166.778C471.377 166.178 470.581 165.578 469.814 164.951C470.539 163.289 470.8 161.462 470.569 159.664C470.338 157.867 469.624 156.165 468.502 154.741C468.466 154.677 468.413 154.624 468.349 154.587C468.285 154.551 468.213 154.531 468.14 154.531V154.531Z" fill="white"/>
<path d="M454.381 132.926C454.454 132.917 454.524 132.889 454.582 132.845C454.641 132.801 454.687 132.742 454.716 132.675C455.706 129.9 455.676 126.865 454.633 124.11C455.595 124.919 456.544 125.714 457.423 126.523C456.637 128.203 456.334 130.068 456.545 131.91C456.757 133.752 457.477 135.499 458.623 136.957C458.667 137.014 458.725 137.059 458.79 137.088C458.856 137.117 458.928 137.13 459 137.124C459.074 137.118 459.145 137.092 459.204 137.047C459.263 137.003 459.309 136.942 459.335 136.873C460.356 134.021 460.292 130.893 459.153 128.086C460.409 129.229 461.609 130.373 462.712 131.475C461.888 133.163 461.557 135.049 461.756 136.917C461.956 138.785 462.679 140.558 463.842 142.034C463.886 142.091 463.943 142.136 464.009 142.165C464.075 142.194 464.147 142.207 464.219 142.201C464.292 142.195 464.363 142.169 464.423 142.124C464.482 142.08 464.527 142.019 464.553 141.95C465.568 139.092 465.503 135.962 464.372 133.149C466.284 135.143 467.874 136.957 469.06 138.463C469.487 140.15 470.333 141.701 471.522 142.972C472.71 144.242 474.201 145.191 475.856 145.73C475.923 145.742 475.992 145.737 476.058 145.717C476.123 145.697 476.183 145.662 476.232 145.614C476.281 145.566 476.318 145.508 476.34 145.443C476.362 145.378 476.368 145.309 476.358 145.242C475.102 139.063 470.553 137.989 469.633 137.835C468.977 137.012 468.237 136.106 467.344 135.129C469.53 136.113 471.966 136.4 474.321 135.952C474.392 135.94 474.458 135.907 474.51 135.858C474.562 135.808 474.598 135.744 474.614 135.673C474.635 135.604 474.638 135.531 474.624 135.461C474.609 135.39 474.577 135.324 474.53 135.269C473.331 133.901 471.773 132.896 470.032 132.366C468.292 131.836 466.438 131.803 464.679 132.27C463.898 131.461 463.06 130.638 462.181 129.787C465.136 130.632 468.291 130.445 471.126 129.257C471.193 129.222 471.249 129.168 471.288 129.103C471.327 129.038 471.348 128.964 471.348 128.888C471.348 128.812 471.327 128.737 471.288 128.672C471.249 128.607 471.193 128.554 471.126 128.518C469.533 127.526 467.707 126.97 465.832 126.904C463.956 126.838 462.096 127.264 460.437 128.141C459.265 127.04 458.023 125.938 456.74 124.836C459.599 126.125 462.833 126.314 465.823 125.366C465.891 125.336 465.951 125.289 465.997 125.231C466.043 125.173 466.075 125.104 466.088 125.031C466.096 124.958 466.085 124.885 466.059 124.817C466.032 124.749 465.99 124.689 465.935 124.64C464.466 123.451 462.697 122.691 460.823 122.445C458.948 122.199 457.043 122.476 455.316 123.246L455.205 123.315C455.161 123.362 455.132 123.42 455.121 123.483L453.544 122.2C453.495 122.134 453.427 122.085 453.349 122.06C452.512 121.391 451.66 120.735 450.795 120.093C450.72 120.029 450.623 119.993 450.523 119.993C450.423 119.993 450.327 120.029 450.251 120.093V120.093C450.188 120.183 450.161 120.294 450.177 120.403C450.193 120.512 450.249 120.61 450.335 120.679C451.144 121.279 451.94 121.879 452.707 122.506C451.982 124.168 451.721 125.995 451.952 127.792C452.183 129.59 452.897 131.292 454.019 132.716C454.055 132.78 454.108 132.833 454.172 132.87C454.236 132.906 454.308 132.926 454.381 132.926V132.926Z" fill="white"/>
<path d="M497.4 164.713C497.329 164.723 497.262 164.75 497.204 164.791C497.145 164.833 497.098 164.887 497.065 164.951C496.088 167.727 496.117 170.758 497.149 173.515C496.186 172.72 495.237 171.911 494.358 171.102C495.144 169.425 495.448 167.562 495.237 165.722C495.025 163.882 494.305 162.137 493.158 160.682C493.115 160.625 493.058 160.58 492.992 160.551C492.926 160.522 492.854 160.51 492.783 160.517C492.711 160.524 492.643 160.55 492.584 160.591C492.525 160.632 492.478 160.687 492.447 160.752C491.432 163.61 491.496 166.74 492.628 169.553C491.372 168.396 490.172 167.266 489.07 166.164C489.898 164.479 490.231 162.595 490.031 160.728C489.831 158.862 489.106 157.09 487.94 155.619C487.899 155.559 487.842 155.511 487.775 155.482C487.708 155.452 487.635 155.442 487.563 155.452C487.492 155.461 487.424 155.487 487.365 155.528C487.307 155.57 487.26 155.625 487.228 155.689C486.213 158.547 486.278 161.677 487.409 164.49C485.498 162.51 483.907 160.682 482.721 159.176C482.29 157.492 481.442 155.943 480.254 154.673C479.066 153.403 477.578 152.452 475.926 151.909C475.858 151.895 475.789 151.898 475.723 151.918C475.658 151.937 475.598 151.973 475.549 152.021C475.498 152.071 475.46 152.133 475.439 152.201C475.417 152.269 475.411 152.341 475.423 152.411C476.679 158.576 481.242 159.65 482.149 159.804C482.805 160.627 483.544 161.547 484.437 162.524C482.251 161.543 479.817 161.251 477.46 161.687C477.39 161.706 477.327 161.743 477.275 161.794C477.224 161.846 477.187 161.91 477.167 161.98C477.146 162.046 477.143 162.117 477.158 162.186C477.172 162.254 477.205 162.318 477.251 162.37C478.444 163.747 480.001 164.759 481.744 165.289C483.487 165.82 485.344 165.848 487.102 165.369C487.884 166.178 488.721 167.015 489.6 167.866C486.646 167.013 483.488 167.2 480.656 168.396C480.592 168.434 480.539 168.487 480.5 168.55C480.461 168.613 480.438 168.684 480.433 168.758C480.431 168.832 480.45 168.905 480.487 168.969C480.524 169.033 480.577 169.085 480.642 169.121C482.234 170.113 484.059 170.672 485.934 170.74C487.809 170.809 489.67 170.385 491.33 169.512C492.502 170.6 493.744 171.701 495.028 172.817C492.169 171.528 488.934 171.339 485.944 172.287C485.875 172.315 485.814 172.361 485.767 172.42C485.721 172.478 485.691 172.548 485.679 172.622C485.671 172.694 485.682 172.767 485.711 172.833C485.741 172.899 485.787 172.957 485.847 172.999C487.315 174.188 489.085 174.948 490.959 175.194C492.833 175.44 494.739 175.163 496.465 174.393L496.563 174.31C496.603 174.264 496.636 174.212 496.66 174.156L498.237 175.44C498.281 175.504 498.345 175.553 498.419 175.579C499.256 176.249 500.107 176.904 500.972 177.56C501.048 177.624 501.144 177.66 501.244 177.66C501.344 177.66 501.44 177.624 501.516 177.56C501.583 177.471 501.612 177.359 501.596 177.249C501.58 177.14 501.521 177.04 501.433 176.974C500.623 176.374 499.842 175.76 499.06 175.147C499.789 173.487 500.053 171.66 499.824 169.862C499.596 168.064 498.883 166.362 497.763 164.937C497.727 164.871 497.674 164.816 497.611 164.777C497.547 164.738 497.475 164.716 497.4 164.713V164.713Z" fill="white"/>
<path d="M524.233 174.352C524.159 174.357 524.088 174.384 524.029 174.428C523.969 174.473 523.924 174.533 523.898 174.603C522.903 177.375 522.927 180.411 523.967 183.167C523.005 182.358 522.07 181.549 521.177 180.754C521.966 179.076 522.273 177.211 522.064 175.369C521.854 173.527 521.137 171.779 519.991 170.321C519.945 170.261 519.886 170.215 519.817 170.186C519.749 170.156 519.674 170.145 519.6 170.153C519.527 170.163 519.459 170.192 519.4 170.236C519.342 170.279 519.295 170.338 519.265 170.404C518.25 173.257 518.315 176.383 519.446 179.192C518.191 178.048 517.005 176.904 515.902 175.802C516.726 174.114 517.057 172.228 516.857 170.36C516.658 168.493 515.935 166.719 514.772 165.243C514.728 165.186 514.671 165.141 514.605 165.112C514.539 165.083 514.467 165.07 514.395 165.076C514.321 165.082 514.251 165.109 514.191 165.153C514.132 165.197 514.087 165.258 514.06 165.327C513.039 168.184 513.104 171.316 514.242 174.128C512.33 172.134 510.726 170.321 509.553 168.814C509.127 167.128 508.281 165.576 507.092 164.306C505.904 163.035 504.413 162.086 502.758 161.547C502.69 161.532 502.62 161.534 502.553 161.553C502.486 161.572 502.425 161.607 502.375 161.656C502.325 161.704 502.288 161.764 502.267 161.83C502.246 161.897 502.243 161.967 502.256 162.035C503.512 168.214 508.06 169.288 508.981 169.442C509.623 170.265 510.377 171.171 511.27 172.148C509.082 171.171 506.65 170.879 504.293 171.311C504.224 171.332 504.161 171.37 504.11 171.421C504.059 171.472 504.022 171.535 504 171.604C503.981 171.674 503.98 171.748 503.997 171.819C504.014 171.889 504.049 171.955 504.098 172.008C505.296 173.373 506.852 174.377 508.589 174.907C510.327 175.437 512.178 175.471 513.935 175.007C514.73 175.816 515.553 176.639 516.433 177.49C513.482 176.645 510.332 176.832 507.502 178.02C507.435 178.054 507.379 178.105 507.339 178.17C507.3 178.234 507.279 178.307 507.279 178.383C507.278 178.457 507.295 178.53 507.329 178.596C507.363 178.661 507.413 178.718 507.474 178.759C509.072 179.747 510.899 180.301 512.776 180.367C514.652 180.433 516.514 180.009 518.177 179.136C519.349 180.233 520.577 181.335 521.86 182.441C519.001 181.152 515.766 180.963 512.777 181.911C512.707 181.938 512.647 181.983 512.602 182.042C512.558 182.102 512.531 182.172 512.526 182.246C512.518 182.319 512.529 182.392 512.555 182.46C512.582 182.528 512.624 182.588 512.679 182.637C514.149 183.825 515.918 184.584 517.792 184.83C519.666 185.076 521.571 184.8 523.298 184.032C523.33 184.038 523.363 184.038 523.395 184.032C523.448 183.99 523.483 183.93 523.493 183.864L525.07 185.147C525.117 185.209 525.179 185.258 525.251 185.287C526.088 185.956 526.94 186.612 527.805 187.254C527.88 187.318 527.977 187.354 528.077 187.354C528.176 187.354 528.273 187.318 528.349 187.254V187.254C528.384 187.21 528.409 187.16 528.424 187.107C528.439 187.053 528.442 186.997 528.434 186.942C528.427 186.888 528.407 186.835 528.378 186.788C528.349 186.74 528.311 186.7 528.265 186.668L525.893 184.841C526.621 183.181 526.885 181.354 526.657 179.556C526.428 177.758 525.716 176.056 524.595 174.631C524.567 174.555 524.518 174.488 524.454 174.439C524.39 174.39 524.313 174.36 524.233 174.352V174.352Z" fill="white"/>
<path d="M462.879 175.928C462.807 175.934 462.738 175.959 462.679 176.001C462.62 176.042 462.574 176.099 462.544 176.165C461.549 178.937 461.574 181.973 462.614 184.729C461.651 183.934 460.716 183.125 459.823 182.316C460.613 180.638 460.92 178.774 460.71 176.931C460.501 175.089 459.783 173.341 458.637 171.883C458.591 171.826 458.532 171.782 458.465 171.755C458.397 171.727 458.324 171.717 458.251 171.725C458.179 171.734 458.11 171.76 458.051 171.802C457.991 171.844 457.943 171.901 457.912 171.966C456.897 174.824 456.962 177.954 458.093 180.768C456.837 179.61 455.651 178.48 454.549 177.378C455.373 175.69 455.704 173.804 455.504 171.936C455.304 170.069 454.581 168.295 453.419 166.82C453.376 166.762 453.318 166.717 453.252 166.69C453.185 166.663 453.113 166.655 453.042 166.666C452.969 166.669 452.899 166.693 452.839 166.735C452.78 166.777 452.734 166.836 452.707 166.903C451.686 169.76 451.75 172.892 452.888 175.705C451.236 174.015 449.671 172.241 448.2 170.39C447.769 168.706 446.921 167.157 445.733 165.887C444.545 164.617 443.057 163.667 441.405 163.123C441.335 163.11 441.264 163.113 441.196 163.132C441.128 163.152 441.066 163.187 441.014 163.235C440.969 163.286 440.937 163.346 440.917 163.411C440.898 163.476 440.893 163.544 440.902 163.612C442.158 169.791 446.707 170.865 447.628 171.018C448.27 171.841 449.023 172.748 449.916 173.808C447.732 172.817 445.296 172.524 442.94 172.971C442.871 172.989 442.808 173.024 442.757 173.072C442.706 173.121 442.668 173.182 442.646 173.25C442.627 173.32 442.626 173.394 442.643 173.464C442.661 173.535 442.695 173.6 442.744 173.654C443.934 175.031 445.489 176.043 447.229 176.574C448.97 177.105 450.826 177.132 452.581 176.653C453.377 177.462 454.2 178.299 455.079 179.15C452.13 178.291 448.975 178.479 446.149 179.68C446.083 179.711 446.027 179.76 445.987 179.822C445.948 179.884 445.926 179.955 445.926 180.028C445.923 180.103 445.94 180.176 445.974 180.242C446.008 180.308 446.059 180.364 446.121 180.405C447.716 181.397 449.543 181.956 451.42 182.024C453.297 182.093 455.16 181.669 456.823 180.796C457.995 181.884 459.223 182.985 460.507 184.087C457.646 182.801 454.411 182.617 451.423 183.571C451.356 183.596 451.297 183.64 451.253 183.696C451.208 183.753 451.18 183.821 451.172 183.892C451.162 183.965 451.171 184.039 451.198 184.107C451.225 184.176 451.269 184.236 451.326 184.283C452.795 185.471 454.564 186.23 456.438 186.476C458.312 186.722 460.217 186.446 461.944 185.677C461.976 185.684 462.01 185.684 462.042 185.677C462.091 185.639 462.126 185.585 462.14 185.524L463.716 186.807C463.763 186.869 463.826 186.917 463.898 186.947C464.749 187.616 465.586 188.272 466.451 188.927C466.527 188.992 466.623 189.028 466.723 189.028C466.823 189.028 466.919 188.992 466.995 188.927V188.927C467.03 188.884 467.056 188.834 467.07 188.781C467.085 188.727 467.089 188.671 467.081 188.616C467.073 188.561 467.054 188.509 467.025 188.461C466.996 188.414 466.957 188.373 466.912 188.342L464.54 186.514C465.267 184.852 465.531 183.024 465.303 181.223C465.074 179.423 464.362 177.718 463.242 176.29C463.235 176.196 463.195 176.108 463.128 176.041C463.062 175.975 462.973 175.934 462.879 175.928V175.928Z" fill="white"/>
<path d="M496.507 117.164C496.434 117.174 496.366 117.203 496.307 117.247C496.249 117.291 496.202 117.349 496.172 117.415C495.195 120.192 495.224 123.223 496.256 125.979C495.293 125.17 494.344 124.375 493.465 123.566C494.251 121.887 494.555 120.022 494.343 118.18C494.131 116.338 493.412 114.591 492.265 113.133C492.221 113.076 492.164 113.031 492.098 113.002C492.032 112.973 491.96 112.96 491.888 112.966C491.814 112.972 491.744 112.998 491.684 113.043C491.625 113.087 491.58 113.148 491.553 113.217C490.539 116.07 490.603 119.196 491.735 122.004C490.479 120.861 489.279 119.717 488.177 118.615C489.001 116.927 489.332 115.041 489.132 113.173C488.932 111.305 488.209 109.532 487.046 108.056C487.003 107.998 486.946 107.952 486.88 107.923C486.814 107.894 486.742 107.882 486.67 107.889C486.596 107.895 486.525 107.921 486.466 107.966C486.407 108.01 486.361 108.071 486.335 108.14C485.32 110.998 485.385 114.127 486.516 116.941C484.605 114.947 483.014 113.133 481.828 111.627C481.402 109.94 480.555 108.389 479.367 107.118C478.178 105.848 476.687 104.899 475.033 104.36C474.965 104.348 474.896 104.353 474.831 104.373C474.765 104.393 474.706 104.428 474.657 104.476C474.608 104.523 474.571 104.582 474.549 104.647C474.527 104.711 474.52 104.78 474.53 104.848C475.786 111.027 480.349 112.101 481.256 112.255C481.912 113.077 482.651 113.984 483.544 114.96C481.357 113.98 478.924 113.688 476.567 114.124C476.499 114.145 476.436 114.183 476.385 114.234C476.334 114.285 476.296 114.348 476.274 114.416C476.253 114.486 476.25 114.559 476.265 114.629C476.279 114.7 476.312 114.766 476.358 114.821C477.558 116.188 479.116 117.194 480.856 117.724C482.597 118.253 484.451 118.287 486.209 117.82C486.991 118.629 487.828 119.452 488.707 120.303C485.752 119.458 482.597 119.645 479.763 120.833C479.699 120.871 479.646 120.923 479.607 120.987C479.568 121.05 479.545 121.121 479.54 121.195C479.538 121.271 479.557 121.345 479.594 121.411C479.631 121.478 479.684 121.533 479.749 121.572C481.342 122.563 483.167 123.12 485.043 123.186C486.918 123.252 488.778 122.825 490.437 121.948C491.609 123.05 492.851 124.152 494.135 125.254C491.276 123.964 488.041 123.776 485.051 124.724C484.982 124.752 484.921 124.798 484.874 124.857C484.828 124.915 484.797 124.985 484.786 125.059C484.778 125.133 484.789 125.208 484.818 125.276C484.848 125.345 484.894 125.404 484.953 125.449C486.42 126.638 488.187 127.397 490.059 127.643C491.931 127.889 493.834 127.613 495.558 126.844L495.67 126.775C495.714 126.728 495.743 126.67 495.753 126.607L497.33 127.89C497.382 127.953 497.449 128.001 497.526 128.03C498.363 128.699 499.214 129.355 500.079 129.997C500.155 130.061 500.251 130.097 500.351 130.097C500.451 130.097 500.547 130.061 500.623 129.997V129.997C500.69 129.908 500.718 129.796 500.703 129.686C500.687 129.576 500.628 129.477 500.54 129.411C499.73 128.811 498.949 128.211 498.167 127.584C498.896 125.924 499.16 124.097 498.931 122.299C498.703 120.501 497.99 118.799 496.87 117.373C496.83 117.312 496.777 117.262 496.714 117.225C496.65 117.189 496.58 117.168 496.507 117.164Z" fill="white"/>
<path d="M483.251 143.666C483.323 143.66 483.392 143.634 483.451 143.593C483.51 143.551 483.556 143.494 483.586 143.429C484.581 140.656 484.556 137.62 483.516 134.864C484.479 135.659 485.414 136.468 486.307 137.277C485.518 138.955 485.211 140.82 485.42 142.662C485.629 144.505 486.347 146.252 487.493 147.711C487.539 147.767 487.598 147.811 487.666 147.839C487.733 147.866 487.806 147.877 487.879 147.868C487.951 147.86 488.02 147.833 488.08 147.791C488.139 147.749 488.187 147.693 488.219 147.627C489.233 144.769 489.169 141.639 488.037 138.826C489.293 139.979 490.479 141.109 491.595 142.215C490.771 143.903 490.44 145.789 490.64 147.657C490.84 149.525 491.563 151.298 492.726 152.774C492.771 152.83 492.831 152.875 492.898 152.902C492.966 152.93 493.039 152.94 493.111 152.931C493.184 152.923 493.253 152.897 493.312 152.854C493.372 152.812 493.419 152.756 493.451 152.69C494.468 149.832 494.398 146.699 493.256 143.889C494.909 145.579 496.473 147.353 497.944 149.203C498.375 150.89 499.225 152.44 500.416 153.71C501.606 154.981 503.098 155.93 504.753 156.47C504.821 156.484 504.89 156.481 504.956 156.461C505.021 156.442 505.081 156.407 505.13 156.359C505.178 156.307 505.214 156.245 505.233 156.177C505.252 156.109 505.255 156.037 505.242 155.968C504 149.803 499.437 148.729 498.516 148.575C497.874 147.753 497.121 146.846 496.228 145.786C498.412 146.777 500.848 147.069 503.205 146.623C503.273 146.605 503.336 146.57 503.387 146.521C503.438 146.472 503.476 146.411 503.498 146.344C503.517 146.274 503.518 146.2 503.501 146.129C503.484 146.058 503.449 145.993 503.4 145.939C502.211 144.562 500.656 143.55 498.915 143.019C497.174 142.489 495.318 142.461 493.563 142.94C492.781 142.131 491.944 141.295 491.065 140.444C494.014 141.302 497.169 141.115 499.995 139.914C500.063 139.88 500.119 139.828 500.159 139.764C500.198 139.7 500.219 139.626 500.219 139.551C500.223 139.478 500.207 139.406 500.173 139.342C500.138 139.278 500.086 139.225 500.023 139.188C498.428 138.196 496.601 137.638 494.724 137.569C492.847 137.501 490.984 137.924 489.321 138.798C488.149 137.71 486.921 136.608 485.637 135.506C488.499 136.786 491.732 136.97 494.721 136.022C494.788 135.997 494.847 135.954 494.892 135.897C494.936 135.84 494.964 135.773 494.972 135.701C494.985 135.628 494.977 135.553 494.95 135.485C494.923 135.416 494.877 135.356 494.819 135.311C493.351 134.119 491.582 133.357 489.707 133.111C487.832 132.864 485.926 133.143 484.2 133.916C484.168 133.91 484.135 133.91 484.102 133.916C484.062 133.962 484.029 134.013 484.005 134.069L482.428 132.786C482.384 132.721 482.32 132.672 482.246 132.647C481.409 131.977 480.558 131.252 479.693 130.666C479.617 130.601 479.521 130.566 479.421 130.566C479.321 130.566 479.225 130.601 479.149 130.666V130.666C479.082 130.755 479.054 130.866 479.069 130.976C479.085 131.086 479.144 131.185 479.233 131.252L481.605 133.079C480.877 134.741 480.613 136.57 480.841 138.37C481.07 140.17 481.782 141.875 482.902 143.303C482.915 143.392 482.956 143.475 483.019 143.54C483.081 143.605 483.162 143.649 483.251 143.666V143.666Z" fill="white"/>
</g>
<path d="M489.377 155.661L395.888 165.09C393.395 165.344 391.104 166.576 389.519 168.516C387.933 170.457 387.183 172.947 387.433 175.44L390.642 207.395C393.077 205.67 395.921 204.613 398.892 204.331C401.863 204.048 404.856 204.549 407.573 205.784C410.289 207.019 412.634 208.944 414.374 211.368C416.114 213.792 417.187 216.629 417.488 219.597C417.788 222.565 417.304 225.56 416.085 228.282C414.865 231.005 412.953 233.361 410.539 235.114C408.124 236.867 405.292 237.957 402.325 238.274C399.357 238.592 396.359 238.126 393.628 236.923L396.851 268.878C397.109 271.37 398.342 273.659 400.282 275.245C402.221 276.832 404.71 277.586 407.205 277.345L500.693 267.93C503.187 267.669 505.477 266.433 507.064 264.492C508.65 262.551 509.405 260.061 509.163 257.566L499.744 164.114C499.48 161.623 498.242 159.338 496.301 157.754C494.359 156.171 491.871 155.419 489.377 155.661V155.661Z" fill="#407BFF"/>
<path opacity="0.3" d="M489.377 155.661L395.888 165.09C393.395 165.344 391.104 166.576 389.519 168.516C387.933 170.457 387.183 172.947 387.433 175.44L390.642 207.395C393.077 205.67 395.921 204.613 398.892 204.331C401.863 204.048 404.856 204.549 407.573 205.784C410.289 207.019 412.634 208.944 414.374 211.368C416.114 213.792 417.187 216.629 417.488 219.597C417.788 222.565 417.304 225.56 416.085 228.282C414.865 231.005 412.953 233.361 410.539 235.114C408.124 236.867 405.292 237.957 402.325 238.274C399.357 238.592 396.359 238.126 393.628 236.923L396.851 268.878C397.109 271.37 398.342 273.659 400.282 275.245C402.221 276.832 404.71 277.586 407.205 277.345L500.693 267.93C503.187 267.669 505.477 266.433 507.064 264.492C508.65 262.551 509.405 260.061 509.163 257.566L499.744 164.114C499.48 161.623 498.242 159.338 496.301 157.754C494.359 156.171 491.871 155.419 489.377 155.661V155.661Z" fill="black"/>
<path d="M514.884 184.324L510.558 182.442L500.4 185.036C499.236 185.34 498.205 186.022 497.47 186.975L495.321 189.764C494.863 190.375 494.631 191.126 494.664 191.889C494.697 192.652 494.993 193.379 495.502 193.949L497.93 196.627C498.513 197.265 499.321 197.651 500.183 197.703C501.045 197.755 501.894 197.469 502.549 196.906L508.06 192.177C508.06 192.177 514.702 189.067 514.884 184.324Z" fill="#FFB573"/>
<path d="M426.823 166.903L431.316 166.331C431.922 166.263 432.488 165.998 432.929 165.578C433.37 165.157 433.661 164.604 433.758 164.002L434.372 160.431C434.454 160.006 434.436 159.568 434.319 159.151C434.202 158.734 433.99 158.35 433.699 158.029C433.408 157.708 433.046 157.459 432.642 157.303C432.238 157.146 431.803 157.085 431.372 157.126L426.126 157.502C425.388 157.542 424.695 157.873 424.201 158.422C423.707 158.971 423.45 159.694 423.488 160.431L423.628 164.197C423.636 164.593 423.728 164.983 423.898 165.341C424.068 165.698 424.312 166.016 424.614 166.272C424.916 166.528 425.27 166.716 425.651 166.825C426.032 166.934 426.431 166.961 426.823 166.903Z" fill="#FFB573"/>
<path d="M496.744 64.3985C485.665 69.9778 466.2 67.4113 466.2 67.4113C466.2 67.4113 477.056 49.6693 496.744 64.3985Z" fill="#263238"/>
<path d="M301.786 418.29L296.219 447.261L282.126 443.857L287.693 414.887L301.786 418.29Z" fill="#7F3E3B"/>
<path d="M282.572 437.971L298.242 441.375C298.485 441.422 298.701 441.558 298.848 441.757C298.995 441.956 299.063 442.203 299.037 442.449L297.949 453.956C297.913 454.244 297.817 454.523 297.668 454.772C297.518 455.022 297.318 455.238 297.08 455.406C296.843 455.574 296.572 455.69 296.287 455.748C296.002 455.806 295.708 455.803 295.423 455.741C290.498 454.583 289.033 453.858 282.795 452.505C275.526 450.901 272.944 451.333 264.405 449.464C259.242 448.335 259.479 442.923 261.795 442.909C267.913 442.924 273.925 441.321 279.223 438.264C280.262 437.744 281.459 437.639 282.572 437.971V437.971Z" fill="#263238"/>
<path opacity="0.2" d="M301.8 418.304L298.926 433.229L284.819 429.825L287.693 414.887L301.8 418.304Z" fill="black"/>
<path d="M326.316 306.719C342.851 258.096 355.94 200.714 355.94 200.714L308.777 197.729C308.777 197.729 301.8 272.184 298.2 306.524C294.433 342.203 282.726 422.754 282.726 422.754L304.005 427.064C304.005 427.064 323.958 351.214 326.316 306.719Z" fill="#263238"/>
<path opacity="0.2" d="M334.186 227.773L345.628 241.916C342.712 252.838 339.307 265.112 335.567 277.651C333.421 261.115 332.959 244.403 334.186 227.773V227.773Z" fill="#263238"/>
<path d="M283.033 425.781L302.567 430.049C302.957 430.135 303.365 430.075 303.712 429.879C304.06 429.683 304.323 429.366 304.451 428.989L306.6 422.698C306.674 422.485 306.703 422.258 306.684 422.034C306.665 421.809 306.598 421.59 306.489 421.393C306.38 421.196 306.23 421.023 306.049 420.888C305.869 420.752 305.662 420.656 305.442 420.606L284.247 415.654C284.024 415.601 283.792 415.597 283.567 415.64C283.342 415.683 283.129 415.774 282.942 415.906C282.754 416.038 282.597 416.208 282.481 416.405C282.364 416.602 282.291 416.821 282.265 417.049L281.777 424.023C281.733 424.419 281.837 424.818 282.068 425.142C282.3 425.466 282.643 425.694 283.033 425.781V425.781Z" fill="#263238"/>
<path opacity="0.1" d="M283.033 425.781L302.567 430.049C302.957 430.135 303.365 430.075 303.712 429.879C304.06 429.683 304.323 429.366 304.451 428.989L306.6 422.698C306.674 422.485 306.703 422.258 306.684 422.034C306.665 421.809 306.598 421.59 306.489 421.393C306.38 421.196 306.23 421.023 306.049 420.888C305.869 420.752 305.662 420.656 305.442 420.606L284.247 415.654C284.024 415.601 283.792 415.597 283.567 415.64C283.342 415.683 283.129 415.774 282.942 415.906C282.754 416.038 282.597 416.208 282.481 416.405C282.364 416.602 282.291 416.821 282.265 417.049L281.777 424.023C281.733 424.419 281.837 424.818 282.068 425.142C282.3 425.466 282.643 425.694 283.033 425.781V425.781Z" fill="white"/>
<path d="M379.367 417.286L380.247 447.177L365.944 446.982L365.065 417.091L379.367 417.286Z" fill="#7F3E3B"/>
<path d="M365.581 440.844L380.791 441.068C381.037 441.066 381.276 441.157 381.459 441.322C381.642 441.487 381.757 441.715 381.781 441.96L383.009 453.454C383.033 453.744 382.995 454.037 382.899 454.312C382.802 454.588 382.649 454.84 382.449 455.053C382.25 455.266 382.008 455.434 381.739 455.548C381.47 455.662 381.18 455.718 380.888 455.713C375.837 455.56 374.247 455.141 367.87 455.044C360.419 454.918 358.814 455.853 350.079 455.727C344.791 455.643 343.94 450.287 346.2 449.813C352.202 448.614 357.781 445.852 362.372 441.807C363.28 441.09 364.428 440.745 365.581 440.844V440.844Z" fill="#263238"/>
<path opacity="0.2" d="M379.381 417.3L379.828 432.699L365.512 432.503L365.065 417.091L379.381 417.3Z" fill="black"/>
<path d="M375.809 305.729C371.763 254.581 375.181 226.992 369.237 201.592L326.316 198.928C326.316 198.928 339.642 274.109 346.995 308.114C354.349 342.12 362.26 424.72 362.26 424.72L383.358 424.985C383.358 424.985 385.94 345.635 375.809 305.729Z" fill="#263238"/>
<path d="M362.316 428.514L382.284 428.821C382.697 428.826 383.096 428.672 383.399 428.392C383.703 428.112 383.888 427.727 383.916 427.315L384.349 420.731C384.366 420.514 384.339 420.295 384.268 420.089C384.198 419.882 384.086 419.692 383.94 419.53C383.794 419.368 383.616 419.238 383.417 419.147C383.219 419.056 383.004 419.007 382.786 419.002L361.06 418.332C360.819 418.324 360.579 418.37 360.357 418.467C360.136 418.564 359.939 418.71 359.783 418.894C359.626 419.077 359.512 419.294 359.451 419.528C359.389 419.761 359.382 420.006 359.428 420.243L360.823 427.217C360.898 427.566 361.084 427.881 361.353 428.115C361.622 428.349 361.96 428.489 362.316 428.514V428.514Z" fill="#263238"/>
<path opacity="0.1" d="M362.316 428.514L382.284 428.821C382.697 428.826 383.096 428.672 383.399 428.392C383.703 428.112 383.888 427.727 383.916 427.315L384.349 420.731C384.366 420.514 384.339 420.295 384.268 420.089C384.198 419.882 384.086 419.692 383.94 419.53C383.794 419.368 383.616 419.238 383.417 419.147C383.219 419.056 383.004 419.007 382.786 419.002L361.06 418.332C360.819 418.324 360.579 418.37 360.357 418.467C360.136 418.564 359.939 418.71 359.783 418.894C359.626 419.077 359.512 419.294 359.451 419.528C359.389 419.761 359.382 420.006 359.428 420.243L360.823 427.217C360.898 427.566 361.084 427.881 361.353 428.115C361.622 428.349 361.96 428.489 362.316 428.514V428.514Z" fill="white"/>
<path d="M324.935 120.247C323.288 123.804 321.572 126.956 319.702 130.206C317.833 133.456 315.865 136.608 313.688 139.704C311.488 142.901 309.082 145.953 306.488 148.84C303.61 152.165 300.235 155.025 296.484 157.321L295.995 157.6C295.161 158.09 294.232 158.399 293.27 158.505C292.308 158.61 291.335 158.511 290.414 158.214C287.693 157.335 285.056 156.345 282.474 155.284C279.893 154.224 277.381 153.053 274.912 151.825C272.442 150.598 270.028 149.301 267.656 147.906C265.284 146.511 262.967 145.116 260.679 143.429C259.86 142.848 259.269 141.999 259.009 141.03C258.749 140.06 258.835 139.03 259.254 138.117C259.672 137.204 260.396 136.466 261.301 136.03C262.206 135.594 263.234 135.488 264.209 135.729H264.363C266.86 136.329 269.442 137.054 271.953 137.71L279.502 139.704C282 140.388 284.512 140.96 286.981 141.573C289.451 142.187 291.921 142.661 294.349 143.164L288.335 144.07C290.424 142.338 292.298 140.362 293.916 138.184C295.828 135.729 297.67 133.023 299.498 130.234C301.326 127.444 302.986 124.529 304.633 121.572C306.279 118.615 307.953 115.56 309.433 112.743L309.516 112.589C310.629 110.738 312.398 109.373 314.471 108.766C316.545 108.16 318.771 108.356 320.707 109.316C322.642 110.277 324.144 111.93 324.915 113.948C325.686 115.966 325.668 118.2 324.865 120.205L324.935 120.247Z" fill="#7F3E3B"/>
<path d="M328.367 95.8654C311.707 97.7624 299.065 123.552 299.065 123.552L316.256 141.838C316.256 141.838 323.916 132.716 332.149 121.181C341.135 108.614 341.553 94.373 328.367 95.8654Z" fill="#407BFF"/>
<path d="M326.316 99.7291C332.721 97.4555 361.409 101.124 361.409 101.124C355.828 108.321 351.167 167.921 350.651 202.178C344.553 203.015 321.167 201.411 315.767 200.156C316.465 186.71 322.074 123.636 326.316 99.7291Z" fill="white"/>
<path d="M307.8 117.806C308.552 111.608 311.556 105.902 316.241 101.772C320.925 97.6427 326.963 95.3768 333.209 95.4052C345.196 95.501 357.141 96.8189 368.86 99.3386C370.686 99.7247 372.415 100.473 373.946 101.539C375.477 102.605 376.778 103.966 377.773 105.544C378.769 107.121 379.437 108.882 379.74 110.722C380.042 112.563 379.973 114.445 379.535 116.258C370.702 153.29 373.033 188.425 370.674 204.772C362.267 207.862 353.338 209.284 344.386 208.957C344.386 208.957 344.595 194.855 346.563 171.046C348.126 152.118 350.93 107.61 356.707 100.217C356.707 100.217 336 97.4277 329.595 99.6733C324.837 126.523 321.349 207.855 321.349 207.869C311.219 207.144 306.446 201.509 306.6 199.835C304.549 166.931 305.581 137.096 307.8 117.806Z" fill="#407BFF"/>
<path d="M357.447 76.617C355.507 82.1963 353.26 92.0855 356.846 97.6369C357.028 97.8948 357.151 98.1898 357.205 98.5007C357.259 98.8116 357.243 99.1306 357.159 99.4348C357.075 99.7389 356.925 100.021 356.719 100.26C356.513 100.499 356.256 100.689 355.967 100.817C350.203 104.141 343.542 105.575 336.921 104.918C327.921 104.192 328.549 100.134 330.865 97.4974C331.412 96.8886 332.17 96.5098 332.986 96.4373C341.484 95.4191 341.567 90.3002 340.34 85.2788L357.447 76.617Z" fill="#7F3E3B"/>
<path opacity="0.2" d="M350.47 80.1738L340.354 85.3207C340.674 86.5094 340.856 87.7308 340.898 88.9611C344.581 88.9611 349.8 86.4923 350.4 83.6608C350.708 82.5217 350.732 81.3243 350.47 80.1738V80.1738Z" fill="black"/>
<path d="M343.956 57.2242C344.336 52.1929 341.598 47.8841 337.841 47.6003C334.083 47.3166 330.728 51.1653 330.348 56.1967C329.968 61.228 332.706 65.5367 336.464 65.8205C340.221 66.1042 343.576 62.2556 343.956 57.2242Z" fill="#263238"/>
<path d="M362.916 61.3717C361.047 72.3768 360.502 78.9185 354.391 84.0374C345.195 91.7229 332.288 85.223 330.893 73.8832C329.623 63.6871 332.888 47.3818 344.023 44.09C355.158 40.7983 364.786 50.3527 362.916 61.3717Z" fill="#7F3E3B"/>
<path d="M360.516 70.6751C360.377 70.6751 360.209 70.4938 360.056 70.5775C355.06 73.3671 353.442 67.3694 353.749 63.3803C353.851 62.0495 354.234 60.7553 354.871 59.5824C355.508 58.4095 356.386 57.3842 357.447 56.5736C352.033 57.1873 346.786 53.7003 346.702 50.4504C340.716 53.0865 333.502 53.24 330.251 47.6607C327 42.0815 331.647 34.7866 337.842 36.7254C335.33 32.2341 345.949 23.2515 357.07 36.5022C357.419 26.892 372.963 36.5022 370.409 45.9451C377.609 48.4279 383.777 62.097 371.567 65.0122C370.758 77.6771 360.516 70.6751 360.516 70.6751Z" fill="#263238"/>
<path d="M366.405 74.1343C364.714 76.2072 362.301 77.5628 359.651 77.9282C356.302 78.3048 355.563 74.9014 357.279 71.8049C358.828 69.0153 362.428 65.4725 365.414 66.5604C368.4 67.6484 368.581 71.4841 366.405 74.1343Z" fill="#7F3E3B"/>
<path d="M346.953 62.1947C346.87 63.1152 346.326 63.7987 345.726 63.7429C345.126 63.6871 344.707 62.906 344.791 61.9855C344.874 61.0649 345.419 60.3954 346.019 60.4512C346.619 60.5069 347.023 61.288 346.953 62.1947Z" fill="#263238"/>
<path d="M336.14 60.9951C336.056 61.9018 335.512 62.5852 334.912 62.5294C334.312 62.4737 333.907 61.6926 333.977 60.7859C334.047 59.8793 334.605 59.1819 335.205 59.2377C335.805 59.2935 336.279 60.0746 336.14 60.9951Z" fill="#263238"/>
<path d="M340.367 61.5112C339.034 64.1853 337.339 66.6633 335.33 68.8758C335.909 69.3802 336.591 69.7525 337.328 69.9669C338.066 70.1813 338.841 70.2326 339.6 70.1172L340.367 61.5112Z" fill="#630F0F"/>
<path d="M342.419 74.5527C343.432 74.6238 344.449 74.4886 345.408 74.1553C346.368 73.8221 347.249 73.2977 348 72.6139C348.025 72.5883 348.044 72.558 348.057 72.5249C348.07 72.4917 348.077 72.4563 348.076 72.4207C348.075 72.3851 348.068 72.3499 348.053 72.3173C348.039 72.2846 348.019 72.2551 347.993 72.2304C347.967 72.2056 347.937 72.1862 347.904 72.1732C347.871 72.1601 347.835 72.1538 347.8 72.1544C347.764 72.1551 347.729 72.1627 347.696 72.1769C347.664 72.1912 347.634 72.2117 347.609 72.2373C346.759 72.9889 345.744 73.5286 344.645 73.8122C343.546 74.0959 342.396 74.1154 341.288 73.8693C341.254 73.8612 341.219 73.8602 341.185 73.8666C341.15 73.8729 341.118 73.8864 341.089 73.906C341.06 73.9257 341.035 73.9512 341.017 73.9809C340.998 74.0106 340.986 74.0439 340.981 74.0785C340.969 74.1486 340.983 74.2208 341.022 74.2805C341.061 74.3401 341.121 74.3826 341.191 74.3993C341.637 74.469 342.028 74.5248 342.419 74.5527Z" fill="#263238"/>
<path d="M350.526 59.9769C350.613 59.9972 350.703 59.9972 350.791 59.9769C350.855 59.9483 350.914 59.9071 350.962 59.8556C351.011 59.8041 351.049 59.7434 351.073 59.6771C351.098 59.6108 351.109 59.5403 351.106 59.4696C351.103 59.3989 351.086 59.3295 351.056 59.2656C350.728 58.4765 350.219 57.7758 349.569 57.2208C348.919 56.6657 348.147 56.2719 347.316 56.0715C347.176 56.0512 347.033 56.0866 346.919 56.1699C346.804 56.2533 346.726 56.3781 346.702 56.5178C346.682 56.6581 346.717 56.8007 346.801 56.9153C346.884 57.03 347.009 57.1075 347.149 57.1315V57.1315C347.804 57.3004 348.41 57.6206 348.919 58.0663C349.428 58.512 349.825 59.0709 350.079 59.698C350.126 59.7768 350.191 59.8433 350.268 59.8919C350.346 59.9404 350.434 59.9696 350.526 59.9769Z" fill="#263238"/>
<path d="M331.605 56.5457C331.691 56.5687 331.782 56.5706 331.869 56.5512C331.957 56.5318 332.038 56.4916 332.107 56.4341C332.604 55.9837 333.201 55.6568 333.848 55.4798C334.495 55.3029 335.175 55.281 335.833 55.4159C335.968 55.4547 336.113 55.4382 336.236 55.3702C336.359 55.3022 336.449 55.1882 336.488 55.0532C336.528 54.9164 336.512 54.7696 336.444 54.6445C336.376 54.5193 336.262 54.4257 336.126 54.3837C335.295 54.1947 334.432 54.2089 333.608 54.425C332.785 54.6411 332.026 55.0528 331.395 55.6251C331.346 55.6744 331.306 55.733 331.279 55.7977C331.252 55.8623 331.238 55.9317 331.238 56.0017C331.238 56.0717 331.252 56.1411 331.279 56.2057C331.306 56.2704 331.346 56.329 331.395 56.3783C331.449 56.452 331.521 56.5099 331.605 56.5457V56.5457Z" fill="#263238"/>
<path d="M382.856 115.504C383.763 117.276 384.502 118.81 385.228 120.47C385.953 122.13 386.623 123.734 387.349 125.38C388.744 128.671 389.958 132.019 391.102 135.408C393.429 142.264 395.212 149.292 396.433 156.428L396.809 159.218L397.005 160.613V160.947V161.561C397.005 162.007 397.074 162.454 397.074 162.956C397.02 165.498 396.515 168.011 395.581 170.376C394.192 173.989 392.424 177.444 390.307 180.684C388.385 183.717 386.303 186.646 384.07 189.457C381.881 192.256 379.553 194.942 377.093 197.505C376.386 198.253 375.434 198.723 374.41 198.829C373.386 198.934 372.359 198.669 371.514 198.081C370.669 197.494 370.063 196.622 369.807 195.626C369.55 194.629 369.66 193.574 370.116 192.652V192.54C373.005 186.528 376.06 180.447 378.488 174.519C379.116 173.04 379.674 171.562 380.163 170.125C380.649 168.784 381.054 167.414 381.377 166.025C381.603 165.161 381.683 164.265 381.614 163.374C381.614 163.374 381.614 163.458 381.614 163.374L381.544 163.095L381.279 161.938L380.763 159.636C379.153 153.39 377.182 147.243 374.86 141.225C373.744 138.156 372.474 135.129 371.247 132.089C370.633 130.582 369.977 129.076 369.321 127.583L367.367 123.232L367.256 122.981C366.275 120.928 366.151 118.569 366.909 116.424C367.668 114.279 369.248 112.523 371.302 111.543C373.356 110.563 375.716 110.438 377.861 111.197C380.007 111.955 381.764 113.535 382.744 115.588L382.856 115.504Z" fill="#7F3E3B"/>
<path d="M370.298 99.7291C388.884 104.416 394.019 128.169 394.019 128.169L370.94 144.712C370.94 144.712 365.219 138.728 363.488 124.668C362.693 117.959 366.53 99.5478 370.298 99.7291Z" fill="#407BFF"/>
<path d="M373.158 189.695L362.414 193.712L370.647 204.731C370.647 204.731 379.926 199.918 378.167 194.576L373.158 189.695Z" fill="#7F3E3B"/>
<path d="M354.419 195.274C351.525 194.787 348.555 195.056 345.795 196.055L351.126 164.393C351.538 161.92 350.953 159.385 349.498 157.343C348.044 155.301 345.839 153.919 343.367 153.499L250.716 137.905C248.247 137.497 245.717 138.082 243.678 139.532C241.638 140.983 240.256 143.181 239.833 145.646L234.419 177.378C237.175 176.367 240.149 176.097 243.042 176.597C245.615 177.029 248.054 178.044 250.172 179.566C252.291 181.088 254.031 183.076 255.261 185.376C256.49 187.676 257.175 190.227 257.262 192.834C257.35 195.44 256.838 198.031 255.767 200.409C254.695 202.786 253.092 204.886 251.081 206.547C249.07 208.208 246.704 209.386 244.166 209.989C241.628 210.592 238.986 210.606 236.442 210.028C233.898 209.45 231.521 208.296 229.493 206.655L224.149 238.318C223.737 240.79 224.322 243.325 225.776 245.367C227.23 247.409 229.435 248.791 231.907 249.211L324.558 264.805C327.029 265.214 329.561 264.629 331.603 263.179C333.644 261.729 335.029 259.531 335.456 257.064L340.786 225.388C342.816 227.002 345.188 228.132 347.721 228.692C350.254 229.252 352.882 229.227 355.404 228.618C357.925 228.009 360.275 226.834 362.274 225.18C364.272 223.527 365.867 221.439 366.937 219.077C368.006 216.714 368.522 214.139 368.446 211.546C368.369 208.954 367.702 206.414 366.495 204.118C365.287 201.823 363.572 199.833 361.48 198.3C359.387 196.768 356.972 195.733 354.419 195.274Z" fill="#407BFF"/>
<path opacity="0.6" d="M354.419 195.274C351.525 194.787 348.555 195.056 345.795 196.055L351.126 164.393C351.538 161.92 350.953 159.385 349.498 157.343C348.044 155.301 345.839 153.919 343.367 153.499L250.716 137.905C248.247 137.497 245.717 138.082 243.678 139.532C241.638 140.983 240.256 143.181 239.833 145.646L234.419 177.378C237.175 176.367 240.149 176.097 243.042 176.597C245.615 177.029 248.054 178.044 250.172 179.566C252.291 181.088 254.031 183.076 255.261 185.376C256.49 187.676 257.175 190.227 257.262 192.834C257.35 195.44 256.838 198.031 255.767 200.409C254.695 202.786 253.092 204.886 251.081 206.547C249.07 208.208 246.704 209.386 244.166 209.989C241.628 210.592 238.986 210.606 236.442 210.028C233.898 209.45 231.521 208.296 229.493 206.655L224.149 238.318C223.737 240.79 224.322 243.325 225.776 245.367C227.23 247.409 229.435 248.791 231.907 249.211L324.558 264.805C327.029 265.214 329.561 264.629 331.603 263.179C333.644 261.729 335.029 259.531 335.456 257.064L340.786 225.388C342.816 227.002 345.188 228.132 347.721 228.692C350.254 229.252 352.882 229.227 355.404 228.618C357.925 228.009 360.275 226.834 362.274 225.18C364.272 223.527 365.867 221.439 366.937 219.077C368.006 216.714 368.522 214.139 368.446 211.546C368.369 208.954 367.702 206.414 366.495 204.118C365.287 201.823 363.572 199.833 361.48 198.3C359.387 196.768 356.972 195.733 354.419 195.274Z" fill="white"/>
<path d="M357.391 204.535L360.921 207.911C361.6 208.564 362.491 208.954 363.432 209.01C364.373 209.066 365.303 208.785 366.056 208.218L370.647 204.772L362.414 193.753L357.321 198.858C356.946 199.232 356.65 199.677 356.45 200.167C356.25 200.657 356.151 201.182 356.157 201.712C356.164 202.241 356.276 202.763 356.488 203.248C356.7 203.733 357.007 204.171 357.391 204.535V204.535Z" fill="#7F3E3B"/>
<path d="M253.953 140.876L255.237 136.12C255.452 135.56 255.837 135.082 256.337 134.752C256.838 134.422 257.429 134.256 258.028 134.279V134.279C259.846 134.204 261.661 134.484 263.372 135.102L270.628 137.78L270.279 140.737C269.986 143.275 267.153 145.395 263.944 145.493C261.79 145.522 259.639 145.292 257.54 144.809L256.758 144.642C256.313 144.611 255.88 144.484 255.489 144.27C255.098 144.056 254.758 143.76 254.491 143.402C254.225 143.045 254.039 142.634 253.946 142.198C253.854 141.762 253.856 141.311 253.953 140.876V140.876Z" fill="#7F3E3B"/>
<path d="M139.66 75.2222C144.307 69.8243 151.298 55.8064 138.153 50.4504C128.456 46.4891 107.874 48.5116 96.0558 66.9092C87.9767 69.6988 85.5907 87.664 104.247 91.4439C122.902 95.2239 139.66 75.2222 139.66 75.2222Z" fill="#263238"/>
<path d="M181.814 421.345L160.493 423.116L164.107 448.167L181.926 446.717L181.814 421.345Z" fill="#FFC3BD"/>
<path opacity="0.2" d="M181.814 421.359L160.479 423.13L162.516 437.162L181.884 435.558L181.814 421.359Z" fill="black"/>
<path d="M141.056 347.601C132.684 315.521 111 277.331 124.744 246.463L184.479 246.282C184.479 246.282 185.958 309.816 186.377 339.735C186.795 371.02 184.186 429.881 184.186 429.881L159.754 431.736C159.754 431.736 143.009 383.573 141.056 347.601Z" fill="#407BFF"/>
<path d="M158.54 432.699L184.94 430.76C185.165 430.741 185.376 430.641 185.534 430.48C185.693 430.319 185.789 430.107 185.805 429.881L186.363 420.118C186.372 419.982 186.351 419.846 186.302 419.72C186.252 419.593 186.176 419.479 186.077 419.386C185.978 419.293 185.86 419.222 185.731 419.18C185.602 419.138 185.465 419.124 185.33 419.141L156.028 423.033C155.895 423.047 155.766 423.091 155.652 423.161C155.538 423.231 155.441 423.325 155.367 423.437C155.294 423.549 155.246 423.676 155.228 423.809C155.209 423.942 155.221 424.077 155.26 424.204L157.577 432.043C157.641 432.244 157.771 432.417 157.946 432.536C158.12 432.655 158.329 432.712 158.54 432.699V432.699Z" fill="#263238"/>
<path opacity="0.2" d="M124.535 276.828C124.304 284.405 124.611 291.989 125.456 299.522C128.372 309.607 132.098 319.705 135.447 329.497C139.828 301.768 139.842 269.45 124.535 276.828Z" fill="black"/>
<path d="M102.893 422.907L81.4884 423.116L81.4605 448.363L99.3488 448.223L102.893 422.907Z" fill="#FFC3BD"/>
<path d="M79.7721 444.485C79.7931 444.344 79.8434 444.21 79.9195 444.09C79.9957 443.97 80.0962 443.867 80.2145 443.788C80.3328 443.709 80.4663 443.656 80.6063 443.632C80.7464 443.608 80.89 443.613 81.0279 443.648C86.4 445.782 96.5861 444.15 100.437 443.411C100.862 443.323 101.301 443.324 101.726 443.413C102.151 443.501 102.553 443.676 102.907 443.927C106.057 445.947 109.471 447.524 113.051 448.614C113.819 450.666 114.012 452.889 113.609 455.044H77.5256C78.5437 451.587 79.2947 448.057 79.7721 444.485V444.485Z" fill="#263238"/>
<path d="M161.749 444.485C161.77 444.344 161.82 444.21 161.896 444.09C161.972 443.97 162.073 443.867 162.191 443.788C162.31 443.709 162.443 443.656 162.583 443.632C162.723 443.608 162.867 443.613 163.005 443.648C168.377 445.782 178.563 444.15 182.414 443.411C182.839 443.323 183.278 443.324 183.702 443.413C184.127 443.501 184.529 443.676 184.884 443.927C188.986 446.828 199.926 448.614 199.926 448.614C200.694 450.666 200.882 452.891 200.47 455.044H159.502C160.52 451.587 161.271 448.057 161.749 444.485V444.485Z" fill="#263238"/>
<path opacity="0.2" d="M102.893 422.921L81.4744 423.116L81.4605 437.26L100.912 437.092L102.893 422.921Z" fill="black"/>
<path d="M78.4744 337.224C75.5721 304.822 66.4744 261.179 76.8 246.282H146.707C146.707 246.282 132.46 310.89 126.614 340.795C120.544 371.885 103.088 431.583 103.088 431.583L79.9396 431.653C79.9396 431.653 71.1628 374.214 78.4744 337.224Z" fill="#407BFF"/>
<path opacity="0.2" d="M82.6744 425.027C82.524 425.025 82.3782 424.975 82.2579 424.885C82.1375 424.795 82.0489 424.669 82.0047 424.525C80.3442 418.946 80.6093 354.854 84.7954 337.308C84.7954 334.992 84.307 330.445 83.7488 324.685C81.8372 305.157 78.293 268.892 83.5814 248.319C83.6277 248.134 83.7455 247.975 83.9091 247.876C84.0726 247.778 84.2685 247.749 84.4535 247.795C84.6385 247.842 84.7976 247.96 84.8957 248.123C84.9939 248.287 85.023 248.482 84.9768 248.667C79.7442 269.018 83.2744 305.143 85.1721 324.559C85.7442 330.417 86.2047 335.034 86.2326 337.377C86.2395 337.438 86.2395 337.498 86.2326 337.559C82.214 354.157 81.8233 418.737 83.4419 424.135C83.4942 424.31 83.4753 424.5 83.3891 424.661C83.3029 424.823 83.1565 424.945 82.9814 424.999C82.8839 425.038 82.7773 425.048 82.6744 425.027Z" fill="white"/>
<path d="M78.3349 432.517H104.553C104.763 432.524 104.968 432.453 105.129 432.32C105.291 432.187 105.399 431.999 105.433 431.792L107.163 422.489C107.188 422.348 107.181 422.203 107.143 422.065C107.105 421.928 107.037 421.8 106.943 421.692C106.85 421.583 106.733 421.497 106.602 421.44C106.471 421.382 106.329 421.355 106.186 421.359L77.6372 422.628C77.5167 422.632 77.3982 422.659 77.289 422.71C77.1799 422.761 77.0823 422.834 77.0025 422.925C76.9227 423.015 76.8623 423.121 76.825 423.235C76.7878 423.35 76.7745 423.471 76.7861 423.591L77.3721 431.625C77.3929 431.867 77.503 432.092 77.681 432.257C77.859 432.422 78.0921 432.515 78.3349 432.517V432.517Z" fill="#263238"/>
<path d="M170.456 133.428C171.851 139.007 173.135 144.586 174.377 150.166C175.619 155.745 176.791 161.324 177.879 166.903L179.553 175.272L181.116 183.641C182.191 189.22 183.14 194.883 184.116 200.518L181.842 195.427C182.146 196.471 182.802 197.378 183.698 197.994C185.484 199.2 187.497 200.03 189.614 200.435C192.436 201.086 195.315 201.464 198.209 201.564C199.758 201.648 201.349 201.704 202.953 201.676C203.749 201.676 204.558 201.676 205.367 201.676C206.177 201.676 207.056 201.676 207.614 201.676L209.595 201.815C211.263 201.922 212.85 202.568 214.118 203.656C215.386 204.743 216.265 206.213 216.624 207.844C216.984 209.475 216.802 211.179 216.108 212.698C215.414 214.217 214.245 215.469 212.777 216.266C211.66 216.879 210.865 217.34 209.916 217.828C208.967 218.316 208.088 218.735 207.126 219.223C205.256 220.032 203.344 220.799 201.363 221.44C199.352 222.099 197.307 222.648 195.237 223.086C193.057 223.521 190.853 223.828 188.637 224.007C186.243 224.177 183.839 224.14 181.451 223.895C178.797 223.673 176.182 223.12 173.665 222.249C170.842 221.309 168.161 219.986 165.698 218.316C163.1 216.517 160.786 214.341 158.833 211.858C157.99 210.811 157.364 209.607 156.991 208.315L156.558 206.767C155.023 201.271 153.446 195.79 151.995 190.266L149.777 182.009L147.67 173.724C146.274 168.145 144.879 162.649 143.609 157.098C142.34 151.546 141.07 145.939 139.967 140.36C139.178 136.368 139.977 132.225 142.197 128.813C144.416 125.401 147.88 122.99 151.851 122.092C155.821 121.194 159.986 121.881 163.458 124.006C166.93 126.131 169.436 129.526 170.442 133.47L170.456 133.428Z" fill="#FFC3BD"/>
<path d="M206.637 203.057L206.93 212.067C210.572 220.813 221.009 214.173 221.009 214.173L227.316 213.016C228.414 212.736 229.378 212.077 230.037 211.156C230.696 210.234 231.007 209.11 230.916 207.981L230.749 201.676C230.791 200.375 230.323 199.108 229.445 198.147C228.566 197.185 227.347 196.605 226.047 196.529L220.465 196.641C218.836 196.669 217.24 197.1 215.819 197.896L206.637 203.057Z" fill="#FFC3BD"/>
<path d="M159.767 117.89C172.605 124.64 180.991 148.464 180.991 148.464C178.284 159.622 167.372 179.973 157.27 179.847C157.27 179.847 142.437 160.724 140.833 146.888C138.879 130.164 133.814 104.248 159.767 117.89Z" fill="#263238"/>
<path d="M147.907 113.928C128.096 112.045 108.137 112.364 88.3954 114.877C76.9814 116.481 68.8605 123.58 70.2558 146.957C73.0465 194.381 68.7209 231.344 74.7488 248.388C74.7488 248.388 162.544 273.495 187.577 249.434C193.66 192.373 173.177 145.005 163.856 125.296C162.396 122.193 160.162 119.517 157.369 117.526C154.576 115.535 151.318 114.296 147.907 113.928V113.928Z" fill="#263238"/>
<path d="M141.307 119.117C139.033 116.885 136.647 118.182 135.544 114.821C135.058 112.182 135.502 109.456 136.8 107.108L109.716 92.49C110.247 102.449 110.651 110.316 106.228 114.277C104.944 121.697 118.786 129.104 137.219 129.215C148.953 129.285 144.586 122.325 141.307 119.117Z" fill="#FFC3BD"/>
<path opacity="0.2" d="M136.395 107.945L115.019 102.602C120.419 111.097 130.144 115.742 135.377 113.691C135.227 111.72 135.578 109.744 136.395 107.945V107.945Z" fill="black"/>
<path d="M127.549 59.2098C113.4 56.0715 101.177 67.8158 103.912 80.6202C106.647 93.4245 108.809 102.072 117.67 106.424C135.279 115.1 143.874 106.731 145.312 93.3548C146.609 81.3036 141.907 62.376 127.549 59.2098Z" fill="#FFC3BD"/>
<path opacity="0.2" d="M124.772 81.9452C123.109 81.5293 121.35 81.7849 119.874 82.6566C121.538 82.7444 123.202 82.5026 124.772 81.9452V81.9452Z" fill="black"/>
<path opacity="0.2" d="M124.87 83.1309C124.088 83.0942 123.307 83.2301 122.584 83.529C121.86 83.828 121.212 84.2825 120.684 84.8604C122.188 84.5945 123.617 84.0044 124.87 83.1309V83.1309Z" fill="black"/>
<path d="M105.698 91.4439C113.609 93.2153 116.86 89.2541 116.86 84.8186C116.86 80.1041 112.409 72.1397 107.526 70.6752C109.27 60.2141 138.112 74.8596 135.363 60.3675C135.363 60.3675 134.581 57.8847 127.13 56.4899C119.679 55.0951 99.7675 59.5864 101.163 74.4691C102.558 89.3517 105.698 91.4439 105.698 91.4439Z" fill="#263238"/>
<path d="M95.6233 67.6484C97.5599 63.764 98.1066 59.3335 97.1721 55.0951C97.1721 55.0951 105.851 60.8278 95.6233 67.6484Z" fill="#263238"/>
<path d="M132.014 95.4191C132.606 95.3746 133.193 95.286 133.772 95.1541C133.817 95.1442 133.86 95.1255 133.897 95.0991C133.935 95.0727 133.967 95.039 133.992 95.0001C134.017 94.9612 134.033 94.9178 134.041 94.8724C134.049 94.8271 134.048 94.7806 134.037 94.7357C134.029 94.6897 134.012 94.646 133.986 94.6073C133.96 94.5685 133.926 94.5356 133.887 94.5106C133.847 94.4857 133.803 94.4692 133.757 94.4624C133.711 94.4555 133.664 94.4583 133.619 94.4707C132.17 94.824 130.658 94.834 129.204 94.4998C127.751 94.1656 126.396 93.4965 125.247 92.5458C125.214 92.5121 125.175 92.4852 125.132 92.4669C125.089 92.4486 125.042 92.4391 124.995 92.4391C124.948 92.4391 124.902 92.4486 124.859 92.4669C124.816 92.4852 124.777 92.5121 124.744 92.5458C124.679 92.6134 124.643 92.7033 124.643 92.7969C124.643 92.8905 124.679 92.9804 124.744 93.048C125.738 93.905 126.893 94.5559 128.141 94.963C129.389 95.37 130.705 95.5251 132.014 95.4191Z" fill="#263238"/>
<path d="M100.688 92.0576C101.594 93.2847 102.733 94.3206 104.041 95.1057C105.348 95.8909 106.798 96.4098 108.307 96.6326C112.367 97.1905 113.888 93.4385 112.326 89.8957C110.93 86.7016 107.135 82.5729 103.284 83.633C99.4326 84.693 98.4837 89.003 100.688 92.0576Z" fill="#FFC3BD"/>
<path d="M127.074 82.0847C127.242 83.2145 127.967 84.0514 128.707 83.9398C129.447 83.8282 129.921 82.81 129.753 81.6802C129.586 80.5504 128.874 79.7275 128.135 79.8391C127.395 79.9507 126.977 80.8991 127.074 82.0847Z" fill="#263238"/>
<path d="M140.372 80.2994C140.54 81.4431 141.265 82.266 142.005 82.1544C142.744 82.0429 143.219 81.0386 143.051 79.9088C142.884 78.779 142.172 77.9421 141.433 78.0537C140.693 78.1653 140.219 79.1696 140.372 80.2994Z" fill="#263238"/>
<path d="M135.349 81.7918L135.991 91.3602C135.991 91.3602 139.13 91.9042 140.833 90.0909C139.752 86.8978 137.863 84.0387 135.349 81.7918V81.7918Z" fill="#ED847E"/>
<path d="M122.693 79.5043C122.579 79.5354 122.458 79.535 122.344 79.5031C122.23 79.4712 122.127 79.4091 122.045 79.3233C121.964 79.2375 121.907 79.1312 121.881 79.0157C121.855 78.9003 121.861 78.7799 121.898 78.6674C122.163 77.6306 122.671 76.6714 123.379 75.8688C124.087 75.0662 124.976 74.4431 125.972 74.0506C126.14 73.9979 126.323 74.0138 126.48 74.0947C126.636 74.1757 126.755 74.3152 126.809 74.483C126.862 74.6532 126.847 74.8374 126.766 74.9964C126.685 75.1553 126.546 75.2764 126.377 75.3338V75.3338C125.59 75.6545 124.891 76.1564 124.336 76.7988C123.78 77.4412 123.385 78.2058 123.181 79.0301C123.15 79.1456 123.088 79.2505 123.002 79.3339C122.916 79.4173 122.809 79.4761 122.693 79.5043V79.5043Z" fill="#263238"/>
<path d="M144.74 75.2222C144.629 75.2324 144.518 75.2133 144.418 75.1667C144.317 75.1202 144.231 75.0479 144.167 74.9572C143.69 74.2644 143.053 73.6963 142.31 73.3007C141.567 72.9051 140.739 72.6935 139.898 72.6837C139.713 72.6837 139.535 72.6102 139.404 72.4794C139.274 72.3486 139.2 72.1712 139.2 71.9863C139.2 71.8013 139.274 71.6239 139.404 71.4931C139.535 71.3623 139.713 71.2889 139.898 71.2889C140.961 71.2804 142.01 71.5298 142.955 72.0157C143.901 72.5015 144.714 73.2094 145.326 74.0785C145.377 74.1499 145.414 74.2308 145.434 74.3164C145.454 74.402 145.457 74.4908 145.443 74.5775C145.428 74.6643 145.397 74.7475 145.351 74.8222C145.304 74.8969 145.244 74.9617 145.172 75.013C145.118 75.0758 145.052 75.1268 144.978 75.1628C144.903 75.1988 144.822 75.219 144.74 75.2222V75.2222Z" fill="#263238"/>
<path d="M226.047 166.443C223.125 166.649 220.307 167.61 217.87 169.233L215.344 137.152C215.138 134.656 213.952 132.344 212.047 130.719C210.141 129.093 207.67 128.287 205.172 128.476L111.502 135.855C109.007 136.065 106.696 137.251 105.071 139.155C103.446 141.059 102.638 143.527 102.823 146.023L110.219 239.657C110.418 242.155 111.601 244.472 113.509 246.099C115.416 247.726 117.891 248.529 120.391 248.332L214.047 240.94C216.545 240.737 218.862 239.554 220.491 237.648C222.12 235.743 222.928 233.271 222.74 230.772L220.2 198.761C222.859 200.007 225.799 200.535 228.726 200.295C232.93 199.588 236.716 197.332 239.339 193.972C241.961 190.611 243.23 186.391 242.893 182.143C242.557 177.894 240.641 173.926 237.523 171.02C234.404 168.114 230.31 166.481 226.047 166.443V166.443Z" fill="#407BFF"/>
<path d="M90.2233 153.639L88.8279 156.205L87.2233 159.078C86.1907 161.031 85.1302 162.984 84.1674 164.964C82.2327 168.824 80.5001 172.781 78.9768 176.82C78.2372 178.773 77.5814 180.712 77.093 182.623C76.5359 184.452 76.0978 186.316 75.7814 188.202C75.1959 191.236 75.097 194.343 75.4884 197.408L72.2791 191.829C73.6152 193.661 75.2083 195.291 77.0093 196.669C79.3767 198.557 81.8607 200.295 84.4465 201.871C87.1395 203.601 90.0279 205.261 92.9302 206.92L97.3674 209.389C98.7628 210.226 100.437 211.063 101.763 211.872L102.433 212.277C103.914 213.174 105.059 214.533 105.691 216.145C106.324 217.757 106.409 219.532 105.933 221.197C105.457 222.862 104.447 224.324 103.058 225.358C101.669 226.393 99.9785 226.942 98.2465 226.922C96.1256 226.922 94.3116 226.783 92.3581 226.629C90.4047 226.476 88.5488 226.239 86.6512 225.932C82.7943 225.353 78.9775 224.533 75.2233 223.477C71.2499 222.364 67.3761 220.922 63.6419 219.167C59.2275 217.135 55.1706 214.403 51.6279 211.077C50.3532 209.862 49.3951 208.353 48.8372 206.683L48.4465 205.484C46.2616 198.859 45.4451 191.86 46.0465 184.91C46.5205 178.857 47.6814 172.876 49.507 167.085C51.2069 161.643 53.3152 156.337 55.814 151.212C57.0279 148.701 58.2698 146.218 59.6651 143.805C60.3488 142.592 61.0605 141.378 61.7861 140.179L62.9302 138.365L63.5302 137.445L64.2558 136.371C66.4975 132.98 69.9739 130.597 73.9458 129.729C77.9176 128.86 82.0718 129.575 85.5249 131.72C88.9779 133.866 91.4576 137.273 92.4366 141.218C93.4157 145.163 92.8168 149.333 90.7675 152.844L90.2233 153.639Z" fill="#FFC3BD"/>
<path d="M79.3256 117.89C56.1907 130.248 47.5674 157.851 47.5674 157.851C52.1442 166.569 79.7442 175.984 90.1256 173.417C90.1256 173.417 100.074 155.285 102.126 139.077C104.023 124.055 92.8744 110.651 79.3256 117.89Z" fill="#263238"/>
<path d="M95.5116 213.406L95.9861 222.417C99.8093 231.093 110.107 224.244 110.107 224.244L116.4 222.961C117.492 222.66 118.441 221.982 119.08 221.047C119.719 220.112 120.005 218.982 119.888 217.856L119.609 211.565C119.644 210.256 119.163 208.985 118.271 208.025C117.379 207.066 116.146 206.494 114.837 206.432L109.256 206.655C107.624 206.73 106.037 207.209 104.637 208.05L95.5116 213.406Z" fill="#FFC3BD"/>
</svg>
