<svg width="80" height="80" viewBox="0 0 80 80" fill="none" xmlns="http://www.w3.org/2000/svg">
<path d="M49.1667 50C52.3867 50 55 52.6133 55 55.8333L54.9967 59.04C55.3867 66.34 49.96 70.03 40.2233 70.03C30.5233 70.03 25 66.3967 25 59.1667V55.8333C25 52.6133 27.6133 50 30.8333 50H49.1667ZM12.5 33.3333H27.0867C26.5051 35.5966 26.5274 37.9729 27.1515 40.2249C27.7757 42.4768 28.9797 44.5256 30.6433 46.1667L31.1833 46.67L30.8333 46.6667C28.8328 46.6659 26.8869 47.3197 25.2926 48.5282C23.6983 49.7367 22.5431 51.4336 22.0033 53.36L21.89 53.3633C12.19 53.3633 6.66667 49.73 6.66667 42.5V39.1667C6.66667 35.9467 9.28 33.3333 12.5 33.3333ZM67.5 33.3333C70.72 33.3333 73.3333 35.9467 73.3333 39.1667L73.33 42.3733C73.72 49.6733 68.2933 53.3633 58.5567 53.3633L57.9933 53.3567C57.4809 51.541 56.4218 49.9271 54.9601 48.7344C53.4984 47.5416 51.7049 46.8278 49.8233 46.69L49.1667 46.6667L48.8167 46.67C50.667 45.0448 52.0298 42.9376 52.7531 40.5835C53.4765 38.2293 53.5319 35.7205 52.9133 33.3367L67.5 33.3333ZM40 26.6667C41.3132 26.6667 42.6136 26.9253 43.8268 27.4279C45.0401 27.9304 46.1425 28.667 47.0711 29.5956C47.9997 30.5242 48.7362 31.6266 49.2388 32.8398C49.7413 34.0531 50 35.3534 50 36.6667C50 37.9799 49.7413 39.2802 49.2388 40.4935C48.7362 41.7068 47.9997 42.8092 47.0711 43.7377C46.1425 44.6663 45.0401 45.4029 43.8268 45.9055C42.6136 46.408 41.3132 46.6667 40 46.6667C37.3478 46.6667 34.8043 45.6131 32.9289 43.7377C31.0536 41.8624 30 39.3188 30 36.6667C30 34.0145 31.0536 31.471 32.9289 29.5956C34.8043 27.7202 37.3478 26.6667 40 26.6667ZM21.6667 10C24.3188 10 26.8624 11.0536 28.7377 12.9289C30.6131 14.8043 31.6667 17.3478 31.6667 20C31.6667 22.6522 30.6131 25.1957 28.7377 27.0711C26.8624 28.9464 24.3188 30 21.6667 30C19.0145 30 16.471 28.9464 14.5956 27.0711C12.7202 25.1957 11.6667 22.6522 11.6667 20C11.6667 17.3478 12.7202 14.8043 14.5956 12.9289C16.471 11.0536 19.0145 10 21.6667 10ZM58.3333 10C60.9855 10 63.529 11.0536 65.4044 12.9289C67.2798 14.8043 68.3333 17.3478 68.3333 20C68.3333 22.6522 67.2798 25.1957 65.4044 27.0711C63.529 28.9464 60.9855 30 58.3333 30C55.6812 30 53.1376 28.9464 51.2623 27.0711C49.3869 25.1957 48.3333 22.6522 48.3333 20C48.3333 17.3478 49.3869 14.8043 51.2623 12.9289C53.1376 11.0536 55.6812 10 58.3333 10Z" fill="#2B345E"/>
</svg>
