<svg width="24" height="24" viewBox="0 0 24 24" fill="none" xmlns="http://www.w3.org/2000/svg">
<path d="M12 0.487091C5.78681 0.487091 0.5 5.63744 0.5 11.6902C0.5 17.7431 5.78681 22.8934 12 22.8934C18.2132 22.8934 23.5 17.7431 23.5 11.6902C23.5 5.63744 18.2132 0.487091 12 0.487091ZM18.8943 18.4066C17.1848 20.067 14.9019 21.0479 12.4906 21.1582C10.0792 21.2684 7.7121 20.5002 5.85044 19.0031C3.98877 17.506 2.76594 15.3873 2.4202 13.0599C2.07446 10.7324 2.63058 8.36291 3.98021 6.41309C5.32984 4.46327 7.37629 3.07279 9.72081 2.51259C12.0653 1.95239 14.54 2.2626 16.6625 3.38277C18.7851 4.50294 20.4035 6.35284 21.2025 8.572C22.0014 10.7912 21.9237 13.2206 20.9844 15.387C20.4948 16.5158 19.785 17.5413 18.8943 18.4066Z" fill="#2B345E"/>
<path d="M7.125 9.133H9V10.9596H7.125V9.133ZM15 9.133H16.875V10.9596H15V9.133ZM12 17.5354C13.2929 17.5354 14.5329 17.035 15.4471 16.1444C16.3614 15.2537 16.875 14.0458 16.875 12.7862H7.125C7.125 14.0458 7.63861 15.2537 8.55285 16.1444C9.46709 17.035 10.7071 17.5354 12 17.5354V17.5354Z" fill="#2B345E"/>
</svg>
