<svg width="24" height="24" viewBox="0 0 24 24" fill="none" xmlns="http://www.w3.org/2000/svg">
<path d="M4 21H13.62C14.1971 21.0003 14.7674 20.8756 15.2916 20.6344C15.8159 20.3933 16.2817 20.0414 16.657 19.603L21.759 13.651C21.8658 13.5266 21.9404 13.3778 21.9762 13.2178C22.012 13.0577 22.0079 12.8913 21.9642 12.7333C21.9206 12.5752 21.8387 12.4303 21.7258 12.3113C21.6129 12.1923 21.4726 12.1029 21.317 12.051L19.349 11.395C18.8734 11.2404 18.3669 11.2054 17.8745 11.2931C17.3821 11.3809 16.919 11.5886 16.526 11.898L13.341 14.445L12.724 13.21C12.3935 12.5443 11.8831 11.9844 11.2507 11.5938C10.6184 11.2032 9.88926 10.9975 9.146 11H4C2.897 11 2 11.897 2 13V19C2 20.103 2.897 21 4 21ZM4 13H9.146C9.909 13 10.594 13.423 10.935 14.105L11.382 15H7V17H13.014C13.1679 16.998 13.3191 16.9603 13.456 16.89L13.459 16.889L13.463 16.887H13.466L13.468 16.886H13.472L13.473 16.885C13.484 16.888 13.476 16.884 13.476 16.884C13.488 16.884 13.478 16.883 13.478 16.883H13.479L13.481 16.882L13.484 16.881L13.486 16.88L13.488 16.879L13.491 16.878L13.493 16.877L13.495 16.876L13.498 16.874L13.5 16.873L13.502 16.872L13.505 16.871L13.507 16.87H13.508L13.51 16.869H13.511L13.513 16.868L13.515 16.867C13.526 16.866 13.518 16.866 13.518 16.866L13.52 16.865C13.5585 16.8417 13.5953 16.8157 13.63 16.787L17.776 13.47C18.037 13.262 18.399 13.197 18.716 13.303L19.273 13.489L15.14 18.312C14.9499 18.5279 14.716 18.7009 14.454 18.8195C14.1919 18.9381 13.9077 18.9996 13.62 19H4V13ZM13.761 2.32601C13.3 2.83201 11 5.45701 11 7.50001C11 9.43001 12.57 11 14.5 11C16.43 11 18 9.43001 18 7.50001C18 5.45701 15.7 2.83201 15.239 2.32601C14.86 1.91001 14.14 1.91001 13.761 2.32601ZM16 7.50001C16 8.32701 15.327 9.00001 14.5 9.00001C13.673 9.00001 13 8.32701 13 7.50001C13 6.79201 13.738 5.56601 14.5 4.56601C15.262 5.56601 16 6.79201 16 7.50001Z" fill="#2B345E"/>
</svg>
